<svg xmlns="http://www.w3.org/2000/svg" xmlns:xlink="http://www.w3.org/1999/xlink" width="500" zoomAndPan="magnify" viewBox="0 0 375 374.999991" height="500" preserveAspectRatio="xMidYMid meet" version="1.0"><defs><g/><clipPath id="88d1bce57d"><path d="M 92.691406 100 L 124 100 L 124 199.132812 L 92.691406 199.132812 Z M 92.691406 100 " clip-rule="nonzero"/></clipPath><clipPath id="9ed555bcea"><path d="M 251.074219 100.875 L 282.4375 100.875 L 282.4375 199.128906 L 251.074219 199.128906 Z M 251.074219 100.875 " clip-rule="nonzero"/></clipPath><clipPath id="7edc544702"><path d="M 172 78.382812 L 203 78.382812 L 203 111 L 172 111 Z M 172 78.382812 " clip-rule="nonzero"/></clipPath></defs><g fill="#1c1d33" fill-opacity="1"><g transform="translate(27.913425, 259.20577)"><g><path d="M 21.789062 0 L 21.789062 -32.683594 L 33.441406 -32.683594 L 33.441406 -41.355469 L 0.433594 -41.355469 L 0.433594 -32.683594 L 12.085938 -32.683594 L 12.085938 0 Z M 21.789062 0 "/></g></g></g><g fill="#1c1d33" fill-opacity="1"><g transform="translate(64.498173, 259.20577)"><g><path d="M 31.492188 0 L 31.492188 -8.671875 L 12.953125 -8.671875 L 12.953125 -16.367188 L 29.703125 -16.367188 L 29.703125 -24.988281 L 12.953125 -24.988281 L 12.953125 -32.683594 L 31.492188 -32.683594 L 31.492188 -41.355469 L 3.253906 -41.355469 L 3.253906 0 Z M 31.492188 0 "/></g></g></g><g fill="#1c1d33" fill-opacity="1"><g transform="translate(101.028729, 259.20577)"><g><path d="M 22.386719 0.921875 C 33.28125 0.921875 39.621094 -5.09375 40.707031 -14.039062 L 30.082031 -14.039062 C 29.429688 -9.703125 26.289062 -7.75 22.167969 -7.75 C 15.609375 -7.75 11.980469 -12.847656 11.980469 -20.703125 C 11.980469 -28.511719 15.609375 -33.550781 22.167969 -33.550781 C 26.289062 -33.550781 29.484375 -31.597656 30.082031 -27.371094 L 40.707031 -27.371094 C 39.621094 -36.261719 33.28125 -42.222656 22.386719 -42.222656 C 8.238281 -42.222656 1.734375 -32.25 1.734375 -20.703125 C 1.734375 -9.160156 8.238281 0.921875 22.386719 0.921875 Z M 22.386719 0.921875 "/></g></g></g><g fill="#1c1d33" fill-opacity="1"><g transform="translate(145.960132, 259.20577)"><g><path d="M 12.953125 0 L 12.953125 -16.316406 L 28.671875 -16.316406 L 28.671875 0 L 38.375 0 L 38.375 -41.355469 L 28.671875 -41.355469 L 28.671875 -24.988281 L 12.953125 -24.988281 L 12.953125 -41.355469 L 3.253906 -41.355469 L 3.253906 0 Z M 12.953125 0 "/></g></g></g><g fill="#1c1d33" fill-opacity="1"><g transform="translate(197.852804, 259.20577)"><g><path d="M 6.070312 0 C 13.929688 0 15.988281 -3.632812 15.988281 -9.484375 L 15.988281 -41.355469 L 12.25 -41.355469 L 12.25 -9.539062 C 12.25 -5.421875 10.40625 -3.359375 6.070312 -3.359375 L 0.867188 -3.359375 L 0.867188 0 Z M 6.070312 0 "/></g></g></g><g fill="#1c1d33" fill-opacity="1"><g transform="translate(221.755122, 259.20577)"><g><path d="M 21.519531 0.542969 C 34.253906 0.542969 40.324219 -9.429688 40.324219 -20.703125 C 40.324219 -31.980469 34.253906 -41.898438 21.519531 -41.898438 C 8.78125 -41.898438 2.710938 -31.980469 2.710938 -20.703125 C 2.710938 -9.429688 8.78125 0.542969 21.519531 0.542969 Z M 21.519531 -2.820312 C 11.597656 -2.820312 6.449219 -10.570312 6.449219 -20.703125 C 6.449219 -30.785156 11.597656 -38.539062 21.519531 -38.539062 C 31.4375 -38.539062 36.585938 -30.785156 36.585938 -20.703125 C 36.585938 -10.570312 31.4375 -2.820312 21.519531 -2.820312 Z M 21.519531 -2.820312 "/></g></g></g><g fill="#1c1d33" fill-opacity="1"><g transform="translate(268.583641, 259.20577)"><g><path d="M 20.109375 0 C 23.847656 0 27.914062 -0.8125 30.679688 -3.304688 C 32.628906 -5.09375 33.929688 -7.695312 33.929688 -11.4375 C 33.929688 -17.289062 30.625 -21.191406 25.257812 -21.625 C 29.214844 -22.058594 31.871094 -26.015625 31.871094 -31.058594 C 31.871094 -33.714844 31.21875 -35.988281 29.8125 -37.671875 C 27.859375 -40.054688 24.5 -41.355469 19.457031 -41.355469 L 4.28125 -41.355469 L 4.28125 0 Z M 8.023438 -37.996094 L 18.699219 -37.996094 C 21.84375 -37.996094 24.390625 -37.34375 26.070312 -35.828125 C 27.371094 -34.636719 28.128906 -32.847656 28.128906 -30.460938 C 28.128906 -25.855469 24.988281 -22.925781 20 -22.925781 L 8.023438 -22.925781 Z M 8.023438 -19.566406 L 21.191406 -19.566406 C 24.609375 -19.566406 30.191406 -18.535156 30.191406 -11.652344 C 30.191406 -8.941406 29.269531 -7.101562 27.96875 -5.855469 C 25.746094 -3.738281 22.277344 -3.359375 19.730469 -3.359375 L 8.023438 -3.359375 Z M 8.023438 -19.566406 "/></g></g></g><g fill="#1c1d33" fill-opacity="1"><g transform="translate(309.070878, 259.20577)"><g><path d="M 18.375 0.542969 C 27.75 0.542969 32.738281 -4.335938 32.738281 -11.546875 C 32.738281 -20.324219 25.421875 -21.953125 18.699219 -23.414062 C 13.007812 -24.660156 7.695312 -25.855469 7.695312 -31.273438 C 7.695312 -35.773438 11.707031 -38.539062 17.34375 -38.539062 C 22.65625 -38.539062 26.667969 -36.371094 27.804688 -30.460938 L 31.382812 -30.460938 C 30.082031 -38.539062 24.609375 -41.898438 17.398438 -41.898438 C 9.703125 -41.898438 3.957031 -37.671875 3.957031 -31.003906 C 3.957031 -23.035156 10.730469 -21.570312 17.234375 -20.164062 C 23.253906 -18.863281 28.996094 -17.617188 28.996094 -11.382812 C 28.996094 -6.015625 25.203125 -2.820312 18.644531 -2.820312 C 13.117188 -2.820312 7.316406 -4.933594 6.125 -11.707031 L 2.332031 -11.707031 C 3.6875 -2.980469 10.570312 0.542969 18.375 0.542969 Z M 18.375 0.542969 "/></g></g></g><g fill="#ff914d" fill-opacity="1"><g transform="translate(67.732385, 294.654619)"><g><path d="M 7.75 -1.265625 L 7.75 0 L 1.421875 0 L 1.421875 -11.15625 L 2.921875 -11.15625 L 2.921875 -1.265625 Z M 7.75 -1.265625 "/></g></g></g><g fill="#ff914d" fill-opacity="1"><g transform="translate(85.971165, 294.654619)"><g><path d="M 7.34375 -4.140625 L 5.59375 -8.671875 C 5.539062 -8.804688 5.484375 -8.960938 5.421875 -9.140625 C 5.367188 -9.328125 5.316406 -9.519531 5.265625 -9.71875 C 5.160156 -9.300781 5.050781 -8.953125 4.9375 -8.671875 L 3.1875 -4.140625 Z M 10.484375 0 L 9.328125 0 C 9.191406 0 9.082031 -0.03125 9 -0.09375 C 8.914062 -0.164062 8.851562 -0.253906 8.8125 -0.359375 L 7.765625 -3.046875 L 2.765625 -3.046875 L 1.71875 -0.359375 C 1.6875 -0.265625 1.625 -0.179688 1.53125 -0.109375 C 1.445312 -0.0351562 1.34375 0 1.21875 0 L 0.046875 0 L 4.5 -11.15625 L 6.03125 -11.15625 Z M 10.484375 0 "/></g></g></g><g fill="#ff914d" fill-opacity="1"><g transform="translate(106.753262, 294.654619)"><g><path d="M 8.96875 -9.875 L 5.359375 -9.875 L 5.359375 0 L 3.859375 0 L 3.859375 -9.875 L 0.234375 -9.875 L 0.234375 -11.15625 L 8.96875 -11.15625 Z M 8.96875 -9.875 "/></g></g></g><g fill="#ff914d" fill-opacity="1"><g transform="translate(126.189805, 294.654619)"><g><path d="M 2.9375 0 L 1.421875 0 L 1.421875 -11.15625 L 2.9375 -11.15625 Z M 2.9375 0 "/></g></g></g><g fill="#ff914d" fill-opacity="1"><g transform="translate(140.796376, 294.654619)"><g><path d="M 10.453125 -11.15625 L 10.453125 0 L 9.703125 0 C 9.585938 0 9.488281 -0.0195312 9.40625 -0.0625 C 9.320312 -0.101562 9.242188 -0.171875 9.171875 -0.265625 L 2.71875 -8.671875 C 2.726562 -8.546875 2.734375 -8.421875 2.734375 -8.296875 C 2.742188 -8.171875 2.75 -8.050781 2.75 -7.9375 L 2.75 0 L 1.421875 0 L 1.421875 -11.15625 L 2.203125 -11.15625 C 2.265625 -11.15625 2.316406 -11.148438 2.359375 -11.140625 C 2.410156 -11.128906 2.453125 -11.113281 2.484375 -11.09375 C 2.523438 -11.082031 2.5625 -11.054688 2.59375 -11.015625 C 2.632812 -10.984375 2.675781 -10.941406 2.71875 -10.890625 L 9.171875 -2.5 C 9.160156 -2.632812 9.148438 -2.765625 9.140625 -2.890625 C 9.140625 -3.015625 9.140625 -3.132812 9.140625 -3.25 L 9.140625 -11.15625 Z M 10.453125 -11.15625 "/></g></g></g><g fill="#ff914d" fill-opacity="1"><g transform="translate(162.924033, 294.654619)"><g/></g></g><g fill="#ff914d" fill-opacity="1"><g transform="translate(177.157257, 294.654619)"><g><path d="M 7.34375 -4.140625 L 5.59375 -8.671875 C 5.539062 -8.804688 5.484375 -8.960938 5.421875 -9.140625 C 5.367188 -9.328125 5.316406 -9.519531 5.265625 -9.71875 C 5.160156 -9.300781 5.050781 -8.953125 4.9375 -8.671875 L 3.1875 -4.140625 Z M 10.484375 0 L 9.328125 0 C 9.191406 0 9.082031 -0.03125 9 -0.09375 C 8.914062 -0.164062 8.851562 -0.253906 8.8125 -0.359375 L 7.765625 -3.046875 L 2.765625 -3.046875 L 1.71875 -0.359375 C 1.6875 -0.265625 1.625 -0.179688 1.53125 -0.109375 C 1.445312 -0.0351562 1.34375 0 1.21875 0 L 0.046875 0 L 4.5 -11.15625 L 6.03125 -11.15625 Z M 10.484375 0 "/></g></g></g><g fill="#ff914d" fill-opacity="1"><g transform="translate(197.93935, 294.654619)"><g><path d="M 13.03125 -11.15625 L 13.03125 0 L 11.703125 0 L 11.703125 -8.1875 C 11.703125 -8.300781 11.703125 -8.421875 11.703125 -8.546875 C 11.710938 -8.671875 11.722656 -8.796875 11.734375 -8.921875 L 7.90625 -1.953125 C 7.789062 -1.722656 7.613281 -1.609375 7.375 -1.609375 L 7.15625 -1.609375 C 6.90625 -1.609375 6.722656 -1.722656 6.609375 -1.953125 L 2.703125 -8.953125 C 2.734375 -8.679688 2.75 -8.425781 2.75 -8.1875 L 2.75 0 L 1.421875 0 L 1.421875 -11.15625 L 2.53125 -11.15625 C 2.664062 -11.15625 2.769531 -11.140625 2.84375 -11.109375 C 2.914062 -11.085938 2.988281 -11.015625 3.0625 -10.890625 L 6.90625 -4.03125 C 6.96875 -3.90625 7.03125 -3.773438 7.09375 -3.640625 C 7.15625 -3.503906 7.210938 -3.367188 7.265625 -3.234375 C 7.316406 -3.367188 7.367188 -3.503906 7.421875 -3.640625 C 7.484375 -3.785156 7.546875 -3.914062 7.609375 -4.03125 L 11.390625 -10.890625 C 11.453125 -11.015625 11.519531 -11.085938 11.59375 -11.109375 C 11.664062 -11.140625 11.769531 -11.15625 11.90625 -11.15625 Z M 13.03125 -11.15625 "/></g></g></g><g fill="#ff914d" fill-opacity="1"><g transform="translate(222.633664, 294.654619)"><g><path d="M 8.296875 -1.234375 L 8.296875 0 L 1.421875 0 L 1.421875 -11.15625 L 8.296875 -11.15625 L 8.296875 -9.921875 L 2.9375 -9.921875 L 2.9375 -6.21875 L 7.28125 -6.21875 L 7.28125 -5.03125 L 2.9375 -5.03125 L 2.9375 -1.234375 Z M 8.296875 -1.234375 "/></g></g></g><g fill="#ff914d" fill-opacity="1"><g transform="translate(241.868004, 294.654619)"><g><path d="M 4.515625 -5.75 C 4.953125 -5.75 5.335938 -5.800781 5.671875 -5.90625 C 6.003906 -6.007812 6.28125 -6.160156 6.5 -6.359375 C 6.726562 -6.554688 6.898438 -6.789062 7.015625 -7.0625 C 7.128906 -7.332031 7.1875 -7.628906 7.1875 -7.953125 C 7.1875 -8.617188 6.96875 -9.117188 6.53125 -9.453125 C 6.09375 -9.785156 5.441406 -9.953125 4.578125 -9.953125 L 2.921875 -9.953125 L 2.921875 -5.75 Z M 9.671875 0 L 8.328125 0 C 8.046875 0 7.84375 -0.101562 7.71875 -0.3125 L 4.828125 -4.296875 C 4.734375 -4.421875 4.632812 -4.507812 4.53125 -4.5625 C 4.4375 -4.625 4.28125 -4.65625 4.0625 -4.65625 L 2.921875 -4.65625 L 2.921875 0 L 1.421875 0 L 1.421875 -11.15625 L 4.578125 -11.15625 C 5.285156 -11.15625 5.894531 -11.082031 6.40625 -10.9375 C 6.914062 -10.789062 7.335938 -10.582031 7.671875 -10.3125 C 8.003906 -10.039062 8.25 -9.710938 8.40625 -9.328125 C 8.570312 -8.953125 8.65625 -8.53125 8.65625 -8.0625 C 8.65625 -7.664062 8.59375 -7.296875 8.46875 -6.953125 C 8.34375 -6.609375 8.160156 -6.300781 7.921875 -6.03125 C 7.691406 -5.757812 7.40625 -5.523438 7.0625 -5.328125 C 6.726562 -5.140625 6.34375 -5 5.90625 -4.90625 C 6.101562 -4.789062 6.269531 -4.628906 6.40625 -4.421875 Z M 9.671875 0 "/></g></g></g><g fill="#ff914d" fill-opacity="1"><g transform="translate(261.864555, 294.654619)"><g><path d="M 2.9375 0 L 1.421875 0 L 1.421875 -11.15625 L 2.9375 -11.15625 Z M 2.9375 0 "/></g></g></g><g fill="#ff914d" fill-opacity="1"><g transform="translate(276.47113, 294.654619)"><g><path d="M 9.25 -2.296875 C 9.332031 -2.296875 9.40625 -2.265625 9.46875 -2.203125 L 10.0625 -1.5625 C 9.613281 -1.03125 9.0625 -0.613281 8.40625 -0.3125 C 7.757812 -0.0195312 6.972656 0.125 6.046875 0.125 C 5.242188 0.125 4.515625 -0.0078125 3.859375 -0.28125 C 3.210938 -0.5625 2.65625 -0.953125 2.1875 -1.453125 C 1.726562 -1.953125 1.367188 -2.550781 1.109375 -3.25 C 0.859375 -3.957031 0.734375 -4.734375 0.734375 -5.578125 C 0.734375 -6.410156 0.863281 -7.175781 1.125 -7.875 C 1.394531 -8.582031 1.769531 -9.1875 2.25 -9.6875 C 2.726562 -10.1875 3.300781 -10.578125 3.96875 -10.859375 C 4.644531 -11.140625 5.382812 -11.28125 6.1875 -11.28125 C 6.988281 -11.28125 7.691406 -11.148438 8.296875 -10.890625 C 8.898438 -10.640625 9.429688 -10.296875 9.890625 -9.859375 L 9.40625 -9.171875 C 9.375 -9.117188 9.332031 -9.070312 9.28125 -9.03125 C 9.226562 -9 9.160156 -8.984375 9.078125 -8.984375 C 8.984375 -8.984375 8.867188 -9.035156 8.734375 -9.140625 C 8.597656 -9.242188 8.421875 -9.359375 8.203125 -9.484375 C 7.984375 -9.609375 7.710938 -9.71875 7.390625 -9.8125 C 7.066406 -9.914062 6.664062 -9.96875 6.1875 -9.96875 C 5.613281 -9.96875 5.085938 -9.867188 4.609375 -9.671875 C 4.128906 -9.472656 3.71875 -9.179688 3.375 -8.796875 C 3.03125 -8.421875 2.757812 -7.957031 2.5625 -7.40625 C 2.375 -6.863281 2.28125 -6.253906 2.28125 -5.578125 C 2.28125 -4.878906 2.378906 -4.253906 2.578125 -3.703125 C 2.773438 -3.160156 3.046875 -2.703125 3.390625 -2.328125 C 3.734375 -1.953125 4.140625 -1.664062 4.609375 -1.46875 C 5.085938 -1.269531 5.597656 -1.171875 6.140625 -1.171875 C 6.472656 -1.171875 6.769531 -1.191406 7.03125 -1.234375 C 7.300781 -1.273438 7.546875 -1.335938 7.765625 -1.421875 C 7.992188 -1.503906 8.207031 -1.609375 8.40625 -1.734375 C 8.601562 -1.859375 8.796875 -2.007812 8.984375 -2.1875 C 9.078125 -2.257812 9.164062 -2.296875 9.25 -2.296875 Z M 9.25 -2.296875 "/></g></g></g><g fill="#ff914d" fill-opacity="1"><g transform="translate(297.113232, 294.654619)"><g><path d="M 7.34375 -4.140625 L 5.59375 -8.671875 C 5.539062 -8.804688 5.484375 -8.960938 5.421875 -9.140625 C 5.367188 -9.328125 5.316406 -9.519531 5.265625 -9.71875 C 5.160156 -9.300781 5.050781 -8.953125 4.9375 -8.671875 L 3.1875 -4.140625 Z M 10.484375 0 L 9.328125 0 C 9.191406 0 9.082031 -0.03125 9 -0.09375 C 8.914062 -0.164062 8.851562 -0.253906 8.8125 -0.359375 L 7.765625 -3.046875 L 2.765625 -3.046875 L 1.71875 -0.359375 C 1.6875 -0.265625 1.625 -0.179688 1.53125 -0.109375 C 1.445312 -0.0351562 1.34375 0 1.21875 0 L 0.046875 0 L 4.5 -11.15625 L 6.03125 -11.15625 Z M 10.484375 0 "/></g></g></g><path fill="#ff914d" d="M 157.386719 133.441406 C 155.058594 133.441406 152.890625 133.882812 150.878906 134.765625 C 148.867188 135.648438 147.121094 136.839844 145.644531 138.335938 C 144.167969 139.832031 142.996094 141.585938 142.132812 143.601562 C 141.265625 145.621094 140.835938 147.761719 140.835938 150.03125 C 140.835938 152.296875 141.265625 154.441406 142.132812 156.457031 C 142.996094 158.472656 144.167969 160.230469 145.644531 161.726562 C 147.121094 163.222656 148.867188 164.414062 150.878906 165.292969 C 152.890625 166.175781 155.058594 166.617188 157.386719 166.617188 C 159.679688 166.617188 161.835938 166.175781 163.847656 165.292969 C 165.859375 164.414062 167.609375 163.214844 169.105469 161.703125 C 170.597656 160.191406 171.773438 158.433594 172.640625 156.433594 C 173.503906 154.433594 173.9375 152.296875 173.9375 150.03125 C 173.9375 147.761719 173.503906 145.628906 172.640625 143.628906 C 171.773438 141.625 170.597656 139.871094 169.105469 138.359375 C 167.609375 136.84375 165.859375 135.648438 163.847656 134.765625 C 161.835938 133.882812 159.679688 133.441406 157.386719 133.441406 Z M 183.792969 150.03125 C 183.792969 157.402344 181.214844 163.640625 176.058594 168.742188 C 170.839844 173.910156 164.617188 176.492188 157.386719 176.492188 C 150.09375 176.492188 143.867188 173.910156 138.714844 168.742188 C 133.558594 163.578125 130.980469 157.339844 130.980469 150.03125 C 130.980469 142.722656 133.558594 136.484375 138.714844 131.316406 C 143.867188 126.148438 150.09375 123.566406 157.386719 123.566406 C 164.617188 123.566406 170.839844 126.148438 176.058594 131.316406 C 178.636719 133.898438 180.5625 136.75 181.835938 139.871094 C 183.109375 142.988281 183.761719 146.375 183.792969 150.03125 " fill-opacity="1" fill-rule="nonzero"/><path fill="#ff914d" d="M 217.742188 133.441406 C 215.417969 133.441406 213.246094 133.882812 211.234375 134.765625 C 209.222656 135.648438 207.476562 136.839844 206 138.335938 C 204.523438 139.832031 203.351562 141.585938 202.488281 143.601562 C 201.625 145.621094 201.191406 147.761719 201.191406 150.03125 C 201.191406 152.296875 201.625 154.441406 202.488281 156.457031 C 203.351562 158.472656 204.523438 160.230469 206 161.726562 C 207.476562 163.222656 209.222656 164.414062 211.234375 165.292969 C 213.246094 166.175781 215.417969 166.617188 217.742188 166.617188 C 220.035156 166.617188 222.191406 166.175781 224.203125 165.292969 C 226.214844 164.414062 227.96875 163.214844 229.460938 161.703125 C 230.953125 160.191406 232.132812 158.433594 232.996094 156.433594 C 233.859375 154.433594 234.292969 152.296875 234.292969 150.03125 C 234.292969 147.761719 233.859375 145.628906 232.996094 143.628906 C 232.132812 141.625 230.953125 139.871094 229.460938 138.359375 C 227.96875 136.84375 226.214844 135.648438 224.203125 134.765625 C 222.191406 133.882812 220.035156 133.441406 217.742188 133.441406 Z M 244.148438 150.03125 C 244.148438 157.402344 241.570312 163.640625 236.414062 168.742188 C 231.195312 173.910156 224.972656 176.492188 217.742188 176.492188 C 210.449219 176.492188 204.222656 173.910156 199.070312 168.742188 C 193.914062 163.578125 191.335938 157.339844 191.335938 150.03125 C 191.335938 142.722656 193.914062 136.484375 199.070312 131.316406 C 204.222656 126.148438 210.449219 123.566406 217.742188 123.566406 C 224.972656 123.566406 231.195312 126.148438 236.414062 131.316406 C 238.992188 133.898438 240.917969 136.75 242.191406 139.871094 C 243.464844 142.988281 244.117188 146.375 244.148438 150.03125 " fill-opacity="1" fill-rule="nonzero"/><g clip-path="url(#88d1bce57d)"><path fill="#211d1d" d="M 119.097656 100.929688 C 120.511719 100.929688 121.683594 101.410156 122.609375 102.371094 C 123.539062 103.332031 124 104.507812 124 105.890625 C 124 107.308594 123.539062 108.484375 122.609375 109.414062 C 121.683594 110.34375 120.511719 110.808594 119.097656 110.808594 C 115.199219 110.808594 113.25 112.761719 113.25 116.667969 L 113.25 139.253906 C 113.25 143.792969 112.210938 147.382812 110.136719 150.03125 C 112.210938 152.675781 113.25 156.269531 113.25 160.804688 L 113.25 183.394531 C 113.25 187.300781 115.199219 189.253906 119.097656 189.253906 C 120.511719 189.253906 121.683594 189.71875 122.609375 190.648438 C 123.539062 191.578125 124 192.75 124 194.167969 C 124 195.585938 123.539062 196.769531 122.609375 197.710938 C 121.683594 198.65625 120.511719 199.128906 119.097656 199.128906 C 108.628906 199.128906 103.394531 193.882812 103.394531 183.394531 L 103.394531 160.804688 C 103.394531 156.898438 101.460938 154.945312 97.59375 154.945312 C 96.179688 154.945312 95.007812 154.480469 94.082031 153.550781 C 93.152344 152.621094 92.691406 151.449219 92.691406 150.03125 C 92.691406 148.613281 93.152344 147.4375 94.082031 146.507812 C 95.007812 145.582031 96.179688 145.117188 97.59375 145.117188 C 101.460938 145.117188 103.394531 143.160156 103.394531 139.253906 L 103.394531 116.667969 C 103.394531 106.175781 108.628906 100.929688 119.097656 100.929688 " fill-opacity="1" fill-rule="nonzero"/></g><g clip-path="url(#9ed555bcea)"><path fill="#211d1d" d="M 271.734375 116.667969 L 271.734375 139.253906 C 271.734375 143.160156 273.667969 145.117188 277.53125 145.117188 C 278.949219 145.117188 280.117188 145.582031 281.046875 146.507812 C 281.972656 147.4375 282.4375 148.613281 282.4375 150.03125 C 282.4375 151.449219 281.972656 152.621094 281.046875 153.550781 C 280.117188 154.480469 278.949219 154.945312 277.53125 154.945312 C 273.667969 154.945312 271.734375 156.898438 271.734375 160.804688 L 271.734375 183.394531 C 271.734375 193.882812 266.5 199.128906 256.03125 199.128906 C 254.617188 199.128906 253.445312 198.65625 252.519531 197.710938 C 251.589844 196.769531 251.128906 195.585938 251.128906 194.167969 C 251.128906 192.75 251.589844 191.578125 252.519531 190.648438 C 253.445312 189.71875 254.617188 189.253906 256.03125 189.253906 C 259.929688 189.253906 261.878906 187.300781 261.878906 183.394531 L 261.878906 160.804688 C 261.878906 156.269531 262.917969 152.675781 264.992188 150.03125 C 262.917969 147.382812 261.878906 143.792969 261.878906 139.253906 L 261.878906 116.667969 C 261.878906 112.761719 259.929688 110.808594 256.03125 110.808594 C 254.617188 110.808594 253.445312 110.34375 252.519531 109.414062 C 251.589844 108.484375 251.128906 107.308594 251.128906 105.890625 C 251.128906 104.507812 251.589844 103.332031 252.519531 102.371094 C 253.445312 101.410156 254.617188 100.929688 256.03125 100.929688 C 266.5 100.929688 271.734375 106.175781 271.734375 116.667969 " fill-opacity="1" fill-rule="nonzero"/></g><g clip-path="url(#7edc544702)"><path fill="#211d1d" d="M 202.324219 104.847656 C 202.324219 105.667969 202.164062 106.429688 201.851562 107.140625 C 201.535156 107.847656 201.121094 108.472656 200.601562 109.007812 C 200.085938 109.542969 199.460938 109.960938 198.738281 110.257812 C 198.015625 110.558594 197.261719 110.707031 196.476562 110.707031 C 195.027344 110.707031 193.789062 110.203125 192.75 109.195312 C 191.714844 108.1875 190.863281 106.953125 190.203125 105.488281 C 189.542969 104.023438 189.066406 102.507812 188.765625 100.949219 C 188.46875 99.390625 188.320312 97.933594 188.320312 96.578125 C 188.320312 91.003906 190.691406 85.363281 195.4375 79.660156 C 196.289062 78.808594 197.246094 78.386719 198.316406 78.386719 C 199.414062 78.386719 200.359375 78.777344 201.144531 79.566406 C 201.929688 80.355469 202.324219 81.300781 202.324219 82.402344 C 202.324219 82.9375 202.210938 83.488281 201.992188 84.054688 C 200.578125 87.523438 199.871094 90.8125 199.871094 93.933594 C 199.871094 96.894531 200.515625 99.761719 201.804688 102.535156 C 202.152344 103.320312 202.324219 104.09375 202.324219 104.847656 Z M 186.808594 104.847656 C 186.808594 105.667969 186.652344 106.429688 186.339844 107.140625 C 186.023438 107.847656 185.605469 108.472656 185.089844 109.007812 C 184.570312 109.542969 183.949219 109.960938 183.226562 110.257812 C 182.503906 110.558594 181.75 110.707031 180.964844 110.707031 C 179.515625 110.707031 178.273438 110.203125 177.238281 109.195312 C 176.199219 108.1875 175.351562 106.953125 174.691406 105.488281 C 174.03125 104.023438 173.550781 102.507812 173.253906 100.949219 C 172.953125 99.390625 172.804688 97.933594 172.804688 96.578125 C 172.804688 91.003906 175.179688 85.363281 179.925781 79.660156 C 180.773438 78.808594 181.734375 78.386719 182.800781 78.386719 C 183.902344 78.386719 184.84375 78.777344 185.632812 79.566406 C 186.417969 80.355469 186.808594 81.300781 186.808594 82.402344 C 186.808594 82.9375 186.699219 83.488281 186.480469 84.054688 C 185.066406 87.523438 184.359375 90.8125 184.359375 93.933594 C 184.359375 96.894531 185.003906 99.761719 186.292969 102.535156 C 186.636719 103.320312 186.808594 104.09375 186.808594 104.847656 " fill-opacity="1" fill-rule="nonzero"/></g></svg>